<?xml version="1.0" encoding="utf-8"?>
<!-- Generator: Adobe Illustrator 21.0.0, SVG Export Plug-In . SVG Version: 6.00 Build 0)  -->
<svg version="1.1" id="圖層_1" xmlns="http://www.w3.org/2000/svg" xmlns:xlink="http://www.w3.org/1999/xlink" x="0px" y="0px"
	 viewBox="0 0 24.7 24.9" style="enable-background:new 0 0 24.7 24.9;" xml:space="preserve">
<path d="M0,12.5L0,12.5v0.7h0.5l12.3,11.7c0.1,0.1,0.2,0.1,0.4,0.1s0.3,0,0.3-0.1c0.2-0.2,0.2-0.5,0-0.7l-11.6-11v-1.3l11.6-11
	c0.2-0.2,0.2-0.5,0-0.7C13.3,0,13,0,12.8,0.1L0.5,11.8H0V12.5z M23.8,24.8c0.1,0.1,0.2,0.1,0.4,0.1c0.1,0,0.3,0,0.4-0.1
	c0.2-0.2,0.2-0.5,0-0.7l-11.6-11v-1.3l11.6-11c0.2-0.2,0.2-0.5,0-0.7C24.3,0,24,0,23.8,0.1L11.5,11.8H11v0.6v0v0.6h0.5L23.8,24.8z"
	/>
</svg>
