<?xml version="1.0" encoding="utf-8"?>
<!-- Generator: Adobe Illustrator 21.0.0, SVG Export Plug-In . SVG Version: 6.00 Build 0)  -->
<svg version="1.1" id="圖層_1" xmlns="http://www.w3.org/2000/svg" xmlns:xlink="http://www.w3.org/1999/xlink" x="0px" y="0px"
	 viewBox="0 0 20 21" style="enable-background:new 0 0 20 21;" xml:space="preserve">
<path d="M19.8,16.5c0.3-0.3,0.3-0.8,0-1.1l-3-3.4c-0.3-0.3-0.7-0.3-1,0l-1.8,2.1l4,4.3L19.8,16.5z M8.4,4.5c0.3-0.3,0.3-0.8,0-1.1
	l-3-3.2c-0.3-0.3-0.7-0.3-1,0L2.6,2.1l4,4.3L8.4,4.5z M1.2,4L0.9,3.8L0.9,3.8c-1.8,1.9-0.6,6.3,2.7,9.8L7,17.3
	c3.3,3.5,7.4,4.7,9.2,2.8l0.1-0.1l-0.2-0.2c0.5-0.1,0.8-0.4,1.1-0.7l0.1-0.1l-4-4.3l-0.1,0.1c-0.8,0.8-2.1,0.7-3-0.2l-4.1-4.3
	c-0.9-0.9-1-2.4-0.2-3.2L5.9,7l-4-4.3L1.9,2.8C1.5,3.2,1.3,3.6,1.2,4z"/>
</svg>
