<?xml version="1.0" encoding="utf-8"?>
<!-- Generator: Adobe Illustrator 21.0.0, SVG Export Plug-In . SVG Version: 6.00 Build 0)  -->
<svg version="1.1" id="圖層_1" xmlns="http://www.w3.org/2000/svg" xmlns:xlink="http://www.w3.org/1999/xlink" x="0px" y="0px"
	 viewBox="0 0 431.8 745.8" style="enable-background:new 0 0 431.8 745.8;" xml:space="preserve">
<path d="M55.9,0.1c1.4,0,2.9,0,4.3,0c3.9,0,7.9,0,11.8,0c4.2,0,8.5,0,12.7,0c8.3,0,16.6,0,24.9,0c6.8,0,13.5,0,20.3,0
	c1,0,1.9,0,2.9,0c2,0,3.9,0,5.9,0c18.3,0,36.7,0,55,0c16.8,0,33.5,0,50.3,0c17.2,0,34.4,0,51.7,0c9.7,0,19.3,0,29,0
	c8.2,0,16.5,0,24.7,0c4.2,0,8.4,0,12.6,0c3.8,0,7.7,0,11.5,0c2,0,4.1,0,6.1,0c15.5,0.1,28,2.9,39.6,13.5
	c10.2,10.7,12.6,23.2,12.5,37.4c0,1.1,0,2.3,0,3.4c0,3.8,0,7.6,0,11.4c0,2.8,0,5.5,0,8.3c0,6,0,12,0,17.9c0,8.9,0,17.8,0,26.7
	c0,16.8,0,33.6,0,50.4c0,13,0,26,0,38.9c0,1.9,0,3.7,0,5.6c0,2.8,0,5.6,0,8.4c0,26.1,0,52.3,0,78.4c0,1,0,2,0,3c0,5,0,10,0,15
	c0,1.5,0,1.5,0,3c0,2,0,4,0,6c0,31.2,0,62.4,0,93.6c0,35.1,0,70.1,0,105.2c0,3.7,0,7.5,0,11.2c0,0.9,0,1.8,0,2.8
	c0,13.9,0,27.8,0,41.7c0,15.8,0,31.6,0,47.4c0,8.8,0,17.7,0,26.5c0,5.9,0,11.8,0,17.7c0,3.4,0,6.7,0,10.1c0,3.6,0,7.3,0,10.9
	c0,1,0,2.1,0,3.1c-0.1,11.6-2.8,21.2-9.4,30.7c-0.6,0.9-1.2,1.8-1.8,2.7c-8.7,8.9-19.8,14-32.2,14.4c-3.7,0-7.4,0-11.1,0
	c-1.4,0-2.9,0-4.3,0c-4,0-7.9,0-11.9,0c-4.3,0-8.6,0-12.8,0c-9.3,0-18.7,0-28,0c-5.8,0-11.7,0-17.5,0c-16.2,0-32.3,0-48.5,0
	c-1.6,0-1.6,0-3.1,0c-1,0-2.1,0-3.1,0c-2.1,0-4.2,0-6.3,0c-1,0-2.1,0-3.2,0c-16.9,0-33.8,0-50.7,0c-17.3,0-34.7,0-52,0
	c-9.7,0-19.5,0-29.2,0c-8.3,0-16.6,0-24.9,0c-4.2,0-8.5,0-12.7,0c-3.9,0-7.8,0-11.6,0c-1.4,0-2.8,0-4.2,0
	c-15.9,0.1-28.7-2.6-40.5-13.5c-10.4-11-12.6-23.9-12.5-38.5c0-1.1,0-2.3,0-3.4c0-3.8,0-7.6,0-11.4c0-2.7,0-5.5,0-8.2
	c0-6,0-11.9,0-17.9c0-8.9,0-17.7,0-26.6c0-16.8,0-33.5,0-50.3c0-12.9,0-25.9,0-38.8c0-1.9,0-3.7,0-5.6c0-2.8,0-5.6,0-8.4
	c0-26,0-52.1,0-78.1c0-1,0-2,0-3c0-5,0-10,0-14.9c0-1,0-2,0-3c0-2,0-4,0-6c0-31.1,0-62.2,0-93.3c0-34.9,0-69.9,0-104.8
	c0-3.7,0-7.5,0-11.2c0-1.4,0-1.4,0-2.8c0-13.8,0-27.7,0-41.5c0-15.7,0-31.5,0-47.2c0-8.8,0-17.6,0-26.4c0-5.9,0-11.8,0-17.7
	c0-3.4,0-6.7,0-10.1c0-3.6,0-7.2,0-10.9c0-1,0-2.1,0-3.1c0.1-14.4,3.8-26,13.5-36.6C25.6,1.2,39.9,0.1,55.9,0.1z M145.4,42.4
	c-0.5,3-0.5,3,0,6c3,3,5.3,3.4,9.5,3.4c1.1,0,2.2,0,3.4,0c1.8,0,1.8,0,3.7,0c1.3,0,2.6,0,3.9,0c3.5,0,7.1,0,10.6,0c3,0,5.9,0,8.9,0
	c7,0,13.9,0,20.9,0c7.2,0,14.4,0,21.6,0.1c6.2,0,12.3,0,18.5,0c3.7,0,7.4,0,11.1,0c4.1,0,8.2,0,12.3,0c1.2,0,2.4,0,3.7,0
	c6.8,0.1,6.8,0.1,12.3-3.2c0.6-0.8,1.1-1.6,1.7-2.5c-1.1-3.2-1.1-3.2-3-6c-1.8-0.1-3.5-0.1-5.3-0.1c-1.7,0-1.7,0-3.5,0
	c-1.3,0-2.5,0-3.9,0c-1.3,0-2.7,0-4,0c-3.7,0-7.3,0-11,0c-3.1,0-6.1,0-9.2,0c-7.2,0-14.4,0-21.6,0c-7.4,0-14.9,0-22.3,0
	c-6.4,0-12.8,0-19.2,0c-3.8,0-7.6,0-11.5,0c-3.6,0-7.2,0-10.8,0c-2,0-3.9,0-5.9,0c-1.2,0-2.3,0-3.5,0c-1,0-2,0-3.1,0
	C147.2,40.2,147.2,40.2,145.4,42.4z M25.4,102.4c0,178.5,0,357.1,0,541c125.7,0,251.5,0,381,0c0-178.5,0-357.1,0-541
	C280.7,102.4,154.9,102.4,25.4,102.4z M175.5,693.1c-1.6,3.2-2,5.7-2.1,9.3c1.5,4.2,3.1,6.7,7,9c3.2,0.5,3.2,0.5,6.9,0.4
	c0.7,0,1.4,0,2.1,0c2.3,0,4.5,0,6.8,0c1.6,0,3.1,0,4.7,0c3.3,0,6.6,0,9.9,0c4.2,0,8.4,0,12.7,0c3.3,0,6.5,0,9.8,0c1.6,0,3.1,0,4.7,0
	c2.2,0,4.4,0,6.5,0c1.2,0,2.5,0,3.8,0c3.9-0.6,5.5-1.8,8.3-4.5c2.3-3.3,2.5-6.1,2-10c-2.1-4.3-4.2-6.6-8.7-8.4c-5.4-1.4-11-1-16.6-1
	c-1.4,0-2.8,0-4.2,0c-2.9,0-5.8,0-8.7,0c-3.7,0-7.4,0-11.1,0c-2.9,0-5.7,0-8.6,0c-2,0-4,0-6.1,0C184.2,688,184.2,688,175.5,693.1z"
	/>
<path d="M251.4,213.4c0.8,0.2,1.7,0.4,2.5,0.6c22.5,5.5,43.1,15.2,61.5,29.4c1.3,1,1.3,1,2.7,2c33.5,26.5,54.9,65.5,60.1,107.8
	c1.8,17.8,1.7,37.8-2.8,55.1c-0.2,0.8-0.4,1.7-0.6,2.5c-7.6,30.1-22,55.1-43.4,77.5c-1,1.1-1,1.1-2,2.2
	c-24.9,26.1-63.8,43.5-99.8,45c-35.4,0.4-35.4,0.4-49.2-3.2c-1.2-0.3-1.2-0.3-2.5-0.6c-29-7.2-54.7-21.3-76.1-42.1
	c-1.2-1.2-2.4-2.3-3.6-3.4c-26-24.8-43.6-64.5-44.9-100.3c-0.7-32.9-0.7-32.9,3.1-48.6c0.2-0.8,0.4-1.7,0.6-2.5
	c10.4-42.1,36.6-78.3,73.4-101.5C165.7,212.2,210.9,203.6,251.4,213.4z M147.4,288.4c-0.8,0.8-1.6,1.7-2.4,2.5
	c-16.6,18.6-22.6,40.1-21.8,64.6c0.8,13.2,5.4,25.1,11.2,36.8c0.7,1.5,0.7,1.5,1.5,3c5.8,11.2,13.9,20.8,22.5,30
	c0.7,0.8,1.5,1.6,2.3,2.5c21,22.1,51,36.2,81.5,37.5c21,0.5,40.3-7.2,56.3-20.6c0.5-0.4,1.1-0.9,1.6-1.3c4.6-4,7.9-7.8,8.9-13.8
	c-0.4-6.3-4.3-10.8-8.5-15.1c-9.9-8.7-26-18.7-39.4-18.4c-8.6,1.2-13.3,8.1-18.3,14.6c-0.8,1.1-0.8,1.1-1.6,2.2
	c-4.1,5.4-7.4,8-14.3,9c-13-0.9-25.1-8.7-34.5-17.4c-0.9-0.8-1.8-1.6-2.7-2.5c-10.7-10.1-21-23.6-21.8-38.9
	c-0.1-4.6,1.7-7.1,4.5-10.7c2-1.9,4.1-3.6,6.3-5.4c10.4-8.2,10.4-8.2,15.1-20.1c-0.3-13.2-11.5-30.6-20.5-39.9
	c-4.1-3.7-7.8-5.9-13.3-6.4C154.1,281,151.2,284.3,147.4,288.4z"/>
</svg>
