<?xml version="1.0" encoding="utf-8"?>
<!-- Generator: Adobe Illustrator 21.0.0, SVG Export Plug-In . SVG Version: 6.00 Build 0)  -->
<svg version="1.1" id="圖層_1" xmlns="http://www.w3.org/2000/svg" xmlns:xlink="http://www.w3.org/1999/xlink" x="0px" y="0px"
	 viewBox="0 0 29 27" style="enable-background:new 0 0 29 27;" xml:space="preserve">
<path d="M17.7,16.9c-3.1,3.6-8.5,4.1-12.1,1C2.1,14.9,1.7,9.4,4.8,5.8s8.5-4.1,12.1-1S20.8,13.3,17.7,16.9z M2.8,4
	c-4.1,4.8-3.7,11.9,1,16s11.8,3.4,15.9-1.4c4.1-4.8,3.7-11.9-1-16C14.1-1.4,6.9-0.8,2.8,4z M23.1,19l-1.6-1.4L19,20.6l1.6,1.4
	l-0.5,0.5l4.5,3.9c1.1,0.9,2.7,0.8,3.7-0.3c0.9-1.1,0.8-2.8-0.2-3.7l-4.5-3.9L23.1,19z"/>
</svg>
