<?xml version="1.0" encoding="utf-8"?>
<!-- Generator: Adobe Illustrator 21.0.0, SVG Export Plug-In . SVG Version: 6.00 Build 0)  -->
<svg version="1.1" id="圖層_1" xmlns="http://www.w3.org/2000/svg" xmlns:xlink="http://www.w3.org/1999/xlink" x="0px" y="0px"
	 viewBox="0 0 323 60" style="enable-background:new 0 0 323 60;" xml:space="preserve">
<style type="text/css">
	.st0{fill-rule:evenodd;clip-rule:evenodd;fill:#00C94F;}
	.st1{fill-rule:evenodd;clip-rule:evenodd;fill:#FFFFFF;}
	.st2{fill:#FFFFFF;}
</style>
<path class="st0" d="M0,30C0,13.4,13.7,0,30.6,0h261.7C309.3,0,323,13.4,323,30s-13.7,30-30.6,30H30.6C13.7,60,0,46.6,0,30z"/>
<path class="st1" d="M48.5,26.4c0.6,0,1.1,0.5,1.1,1.1c0,0.6-0.5,1.1-1.1,1.1h-3.1v1.9h3.1c0.6,0,1.1,0.5,1.1,1.1
	c0,0.6-0.5,1.1-1.1,1.1h-4.2c-0.6,0-1.1-0.5-1.1-1.1v-4v-4c0-0.6,0.5-1.1,1.1-1.1h4.2c0.6,0,1.1,0.5,1.1,1.1c0,0.6-0.5,1.1-1.1,1.1
	h-3.1v1.9H48.5z M41.8,31.5c0,0.5-0.3,0.9-0.8,1c-0.1,0-0.2,0.1-0.3,0.1c-0.3,0-0.7-0.2-0.9-0.4l-4.3-5.6v5c0,0.6-0.5,1.1-1.1,1.1
	c-0.6,0-1.1-0.5-1.1-1.1v-8c0-0.5,0.3-0.9,0.7-1c0.1,0,0.2-0.1,0.3-0.1c0.3,0,0.7,0.2,0.9,0.4l4.3,5.6v-5c0-0.6,0.5-1.1,1.1-1.1
	c0.6,0,1.1,0.5,1.1,1.1V31.5z M31.8,31.5c0,0.6-0.5,1.1-1.1,1.1c-0.6,0-1.1-0.5-1.1-1.1v-8c0-0.6,0.5-1.1,1.1-1.1
	c0.6,0,1.1,0.5,1.1,1.1V31.5z M27.5,32.5h-4.1c-0.6,0-1.1-0.5-1.1-1.1v-8c0-0.6,0.5-1.1,1.1-1.1s1.1,0.5,1.1,1.1v7h3.1
	c0.6,0,1.1,0.5,1.1,1.1C28.6,32,28.1,32.5,27.5,32.5z M56.6,27.1c0-9.1-9.4-16.4-20.9-16.4c-11.5,0-20.9,7.4-20.9,16.4
	c0,8.1,7.4,14.9,17.5,16.2c0.7,0.1,1.6,0.4,1.8,1c0.2,0.5,0.1,1.3,0.1,1.8l-0.3,1.7c-0.1,0.5-0.4,2,1.8,1.1
	c2.2-0.9,12-6.9,16.4-11.8C55.1,34,56.6,30.8,56.6,27.1z"/>
<g>
	<path class="st2" d="M157.7,34.9c-0.3,2.2-0.8,4.1-1.5,5.7l-1.7-0.7c0.7-1.7,1.2-3.5,1.4-5.4L157.7,34.9z M163.3,24.1
		c-1.8,3.2-3.6,5.8-5.5,7.7c0.6-0.1,1.5-0.3,2.6-0.6c-0.1-0.4-0.3-0.8-0.5-1.1l1.6-0.6c0.7,1.3,1.1,2.6,1.4,3.8l-1.6,0.6
		c-0.1-0.5-0.2-0.8-0.3-1.1c-1.8,0.5-3.7,0.9-5.9,1.3l-0.4-1.7c1.5-1.3,2.8-2.8,4.1-4.7c-1,0.2-2.2,0.4-3.6,0.5l-0.4-1.5
		c1.6-1.9,3.1-4.3,4.3-7.3l1.9,0.7c-0.9,2-2,4-3.4,5.9c0.9-0.1,1.7-0.2,2.4-0.3c0.5-0.7,0.9-1.5,1.4-2.4L163.3,24.1z M160.9,39.6
		L159,40c0-1.6-0.2-3.3-0.6-5.1l1.7-0.4C160.5,36.3,160.8,38,160.9,39.6z M163.5,36.7l-1.6,0.6c-0.2-0.9-0.6-1.9-1-2.8l1.6-0.5
		C162.9,34.9,163.2,35.8,163.5,36.7z M167.6,31c0.1,3.1-1.3,6.1-4.3,9l-1.4-1.3c2.1-1.8,3.3-3.7,3.8-5.8h-2.4V31H167.6z M175.9,38.2
		l-1.4,1.8c-1.5-1.2-2.8-2.8-4.1-5v3.6c0,0.7-0.3,1.2-0.8,1.6s-1.7,0.5-3.4,0.5l-0.6-2.2c1.1,0,1.8,0,2.1,0s0.5-0.2,0.5-0.4v-8.6
		h-4.5v-7.9h3c0.4-0.6,0.8-1.4,1.1-2.2l2.1,0.5c-0.2,0.6-0.5,1.2-0.8,1.7h5.3v7.9h-4.1v1.9c0.2,0.3,0.4,0.8,0.8,1.3
		c0.7-0.5,1.5-1.3,2.5-2.3l1.5,1.3c-0.8,0.8-1.8,1.7-2.9,2.7C173,35.6,174.3,36.9,175.9,38.2z M172.3,24.7v-1.4h-6.5v1.4H172.3z
		 M172.3,27.8v-1.4h-6.5v1.4H172.3z"/>
	<path class="st2" d="M200.7,40h-20.9v-2.2h8.6V19.6h2.2v7.2h9v2.1h-9v8.9h10.1V40z"/>
	<path class="st2" d="M225.9,32l-0.8,1.9c-3.5-0.5-6.7-1.3-9.5-2.4c-3,1.1-6.2,1.9-9.7,2.3l-0.8-1.9c2.8-0.2,5.6-0.8,8.1-1.6
		c-1.4-1-2.3-1.7-2.8-2.1c-1,0.8-2,1.4-3,2l-1.4-1.6c2.7-1.6,4.8-3.3,6.4-5.4h-4.7v3.3h-2.1v-5.3h8.6c0-0.2-0.3-0.6-0.7-1.4l2.3-0.5
		c0.3,0.4,0.6,1,1,1.9h8.8v5.3h-2.2v-3.3h-10.5l1.6,0.9c-0.3,0.3-0.5,0.7-0.9,1h8.7v1.9c-1.6,1.3-3,2.4-4.4,3.2
		C220.5,31.2,223.1,31.8,225.9,32z M222.9,40.7h-2.2v-0.9h-10.4v0.9h-2.2v-6.9h14.8V40.7z M220.7,37.8v-2.1h-10.4v2.1H220.7z
		 M219,27.1h-6.9c1,0.8,2.1,1.6,3.4,2.2C216.9,28.6,218.1,27.9,219,27.1z"/>
	<path class="st2" d="M238.5,38.8c0,0.5-0.2,0.9-0.5,1.3s-1.4,0.5-3.2,0.5l-0.7-2.1c0.5,0.1,1,0.1,1.4,0.1c0.4,0,0.7,0,0.8-0.1
		s0.2-0.2,0.2-0.4v-5.1h-2.6c-0.2,3.2-0.8,5.7-1.7,7.8l-1.9-1.2c1-2.3,1.5-5.2,1.5-8.7V20.1h6.9V38.8z M236.4,25.4v-3.1h-2.6v3.1
		H236.4z M236.4,30.8v-3.4h-2.6v3.4H236.4z M251.4,39l-1.3,1.7c-1-0.6-2.1-1.4-3.2-2.4c-1,1-1.9,1.7-2.7,2.3l-1.5-1.6
		c1.1-0.8,2-1.5,2.7-2.3c-1.5-2.2-2.4-4.4-2.8-6.7h-0.3v10.6h-2.2V20h10.5c0,1.3-0.1,2.5-0.3,3.7s-0.5,1.9-0.7,2.2s-0.6,0.5-1,0.7
		s-1.4,0.3-3.1,0.3l-0.8-2c2,0,3-0.1,3.2-0.4s0.3-1.1,0.5-2.5h-6v5.8h8.1c-0.3,3.7-1.1,6.6-2.4,8.6C248.8,37.2,249.9,38.1,251.4,39z
		 M248.2,30h-3.4c0.3,1.6,0.9,3.2,1.9,4.8C247.4,33.7,247.9,32.1,248.2,30z"/>
</g>
<path class="st1" d="M86.6,43.5c1.6,0,2.8-1.3,2.8-2.8c0-1.5-1.3-2.8-2.8-2.8h-7.9V19.3c0-1.5-1.3-2.8-2.9-2.8
	c-1.6,0-2.8,1.3-2.8,2.8v21.4c0,1.6,1.3,2.8,2.8,2.8H86.6z"/>
<path class="st1" d="M97.8,40.7V19.3c0-1.5-1.3-2.8-2.8-2.8c-1.6,0-2.8,1.3-2.8,2.8v21.4c0,1.6,1.3,2.8,2.8,2.8
	C96.5,43.5,97.8,42.2,97.8,40.7z"/>
<path class="st1" d="M123.7,40.7V19.3c0-1.5-1.3-2.8-2.8-2.8s-2.8,1.3-2.8,2.8v13.2l-11-14.9c-0.5-0.7-1.4-1.1-2.3-1.1
	c-0.3,0-0.6,0-0.9,0.1c-1.2,0.4-1.9,1.5-1.9,2.7v21.4c0,1.6,1.3,2.8,2.8,2.8c1.6,0,2.9-1.3,2.9-2.8V27.5l11,14.9
	c0.5,0.7,1.4,1.1,2.3,1.1c0.3,0,0.6,0,0.9-0.2C122.9,43,123.7,41.9,123.7,40.7z"/>
<path class="st1" d="M141.2,27.2h-7.9v-5h7.9c1.6,0,2.8-1.3,2.8-2.8c0-1.5-1.3-2.8-2.8-2.8h-10.8c-1.6,0-2.8,1.3-2.8,2.8V30v10.7
	c0,1.6,1.3,2.8,2.8,2.8h10.8c1.6,0,2.8-1.3,2.8-2.8c0-1.5-1.3-2.8-2.8-2.8h-7.9v-5h7.9c1.6,0,2.8-1.3,2.8-2.8
	C144,28.4,142.7,27.2,141.2,27.2z"/>
<polygon class="st1" points="288.9,37.7 299.3,30 288.9,22.3 288.9,24.4 295.8,30 288.9,35.6 "/>
<polygon class="st1" points="278.4,37.7 288.9,30 278.4,22.3 278.4,24.4 285.4,30 278.4,35.6 "/>
</svg>
